<svg xmlns="http://www.w3.org/2000/svg" xmlns:xlink="http://www.w3.org/1999/xlink" width="15" height="17" viewBox="0 0 15 17">
    <defs>
        <path id="rw7gv8kw9a" d="M0 0L14.95 0 14.95 16.937 0 16.937z"/>
    </defs>
    <g fill="none" fill-rule="evenodd">
        <g>
            <g>
                <g>
                    <g transform="translate(-1113.000000, -51.000000) translate(1051.000000, 36.000000) translate(62.000000, 15.000000)">
                        <mask id="q4osdsm5kb" fill="#fff">
                            <use xlink:href="#rw7gv8kw9a"/>
                        </mask>
                        <path fill="#1B2442" d="M5.994 14.517c-.163-.003-.18.046-.111.18.337.66.879 1.014 1.6 1.013.714-.001 1.244-.361 1.58-1.01.088-.167.02-.184-.128-.183-.486.007-.973.003-1.46.003-.493 0-.987.005-1.48-.003zm7.728-1.225c-.35-.513-.677-1.005-1.016-1.489-.345-.492-.5-1.032-.496-1.638.012-1.394.018-2.79 0-4.184-.03-2.557-2.042-4.645-4.549-4.745-2.665-.107-4.903 2.055-4.926 4.771-.011 1.352-.015 2.704.004 4.056.01.707-.179 1.325-.596 1.888-.317.428-.603.879-.918 1.341h12.497zM13.41 8.04c0 .733.004 1.466-.001 2.2-.002.306.083.579.255.827.35.506.7 1.01 1.046 1.518.277.406.322.84.096 1.282-.216.426-.576.647-1.045.651-1.06.008-2.118.005-3.177 0-.142-.001-.205.032-.245.183-.364 1.345-1.522 2.24-2.876 2.237-1.337-.002-2.502-.908-2.857-2.235-.04-.15-.1-.186-.243-.185-1.024.006-2.048 0-3.071.005-.518.003-.925-.194-1.16-.676-.238-.49-.14-.938.177-1.369.355-.483.684-.986 1.02-1.483.152-.226.21-.481.21-.756-.003-1.394-.03-2.79.004-4.183C1.605 3.482 2.8 1.613 5.081.532c2.613-1.238 5.809-.24 7.366 2.223.65 1.026.966 2.147.965 3.364v1.92h-.002z" mask="url(#q4osdsm5kb)"/>
                    </g>
                </g>
            </g>
        </g>
    </g>
</svg>
