<svg xmlns="http://www.w3.org/2000/svg" width="26" height="26" viewBox="0 0 26 26">
    <g fill="none" fill-rule="evenodd">
        <g fill="#1B2442" fill-rule="nonzero" stroke="#1B2442" stroke-width=".5">
            <g>
                <path d="M44.326 132l10.4-10.4c.366-.366.366-.96 0-1.325-.367-.366-.96-.367-1.326 0l-10.4 10.4-10.4-10.4c-.366-.367-.96-.367-1.325 0-.366.366-.367.96 0 1.325l10.4 10.4-10.4 10.4c-.367.366-.367.96 0 1.325.183.184.423.275.663.275.24 0 .48-.091.663-.275L43 133.325l10.4 10.4c.183.184.422.275.662.275.24 0 .48-.091.663-.275.367-.366.367-.96 0-1.325l-10.4-10.4z" transform="translate(-30.000000, -119.000000)"/>
            </g>
        </g>
    </g>
</svg>
