<svg xmlns="http://www.w3.org/2000/svg" width="10" height="20" viewBox="0 0 10 20">
    <g fill="none" fill-rule="evenodd">
        <g fill="#1B2442" fill-rule="nonzero">
            <g>
                <path d="M9.789 9.479L1.225.715C.945.428.49.428.21.716c-.28.288-.28.755.001 1.042L8.266 10 .21 18.242c-.28.287-.281.753-.002 1.041.14.145.325.217.509.217.183 0 .367-.072.507-.215l8.564-8.764c.135-.138.211-.325.211-.521s-.076-.383-.211-.521z" transform="translate(-155.000000, -50.000000) translate(160.000000, 60.000000) rotate(-180.000000) translate(-160.000000, -60.000000) translate(155.000000, 50.000000)"/>
            </g>
        </g>
    </g>
</svg>
