<svg xmlns="http://www.w3.org/2000/svg" xmlns:xlink="http://www.w3.org/1999/xlink" width="22" height="19" viewBox="0 0 22 19">
    <defs>
        <path id="5o38mc538a" d="M0 0L21.907 0 21.907 18.915 0 18.915z"/>
    </defs>
    <g fill="none" fill-rule="evenodd">
        <g>
            <g>
                <g>
                    <g transform="translate(-1060.000000, -50.000000) translate(1051.000000, 36.000000) translate(9.000000, 14.000000)">
                        <mask id="9gvn8txikb" fill="#fff">
                            <use xlink:href="#5o38mc538a"/>
                        </mask>
                        <path fill="#1B2442" d="M13.842 9.618c-.893.014-1.744-.333-2.392-.967-.654-.64-1.017-1.49-1.02-2.394-.008-1.852 1.505-3.368 3.372-3.38h.021c.896 0 1.742.347 2.382.979.646.636 1.005 1.483 1.01 2.384.01 1.84-1.503 3.355-3.373 3.378m-6.995 7.494c-.001-.53-.003-1.08.089-1.608.386-2.224 1.601-3.918 3.613-5.037.211-.118.432-.213.666-.313l.098-.042c.121-.052.208-.043.345.033 1.139.638 2.368.745 3.654.318.283-.093.535-.232.77-.366.052-.03.088-.038.176-.006 2.587.94 4.407 3.403 4.528 6.129.012.27.012.549.011.818 0 .239 0 .486.008.73v.05c-.014.002-.038.002-.065.004-1.832-.005-3.695-.005-5.497-.004h-2.947c-1.76 0-3.578-.001-5.367.005-.041.002-.068-.003-.082-.005-.002-.014-.005-.039-.004-.08.005-.21.004-.42.004-.626m15.058-.522c-.007-1.133-.226-2.198-.648-3.163-.83-1.897-2.21-3.296-4.101-4.157l-.023-.01.026-.029c.355-.384.624-.8.798-1.238.683-1.724.419-3.342-.764-4.677-1.235-1.394-2.846-1.857-4.661-1.338-1.484.425-2.619 1.573-3.036 3.073-.419 1.507-.036 3.081 1.024 4.21l.004.004c-.947.412-1.8 1.007-2.536 1.768-.957.99-1.623 2.176-1.98 3.524-.007.03-.013.047-.017.058l-.026.001c-1.452-.007-2.995-.007-4.852 0h-.01v-.006c.004-.228.002-.458 0-.68-.002-.31-.005-.628.008-.939.104-2.515 1.322-4.322 3.62-5.37.081-.036.093-.029.126-.007.524.335 1.123.534 1.78.59.738.063 1.447-.06 2.107-.366.276-.127.395-.361.328-.642-.064-.267-.274-.425-.549-.407-.122.007-.231.05-.335.093-.999.401-1.931.315-2.85-.266-1.07-.677-1.592-2.012-1.266-3.247.334-1.27 1.452-2.2 2.718-2.26 1.208-.056 2.157.436 2.823 1.464.117.18.265.293.427.326.138.027.277-.004.404-.09.264-.18.302-.506.095-.83C9.86.915 8.895.269 7.67.058 6.53-.14 5.346.17 4.423.906c-.926.737-1.488 1.82-1.543 2.972-.053 1.107.289 2.088 1.016 2.918-.326.146-.646.336-.978.582C.994 8.803.013 10.752.001 13.17c-.002.411-.001.822 0 1.233v.534c0 .594.183.775.781.775 1.665 0 3.33 0 4.997-.003h.026c-.077.591-.073 1.188-.068 1.765.001.22.003.448 0 .67-.003.266.022.47.158.607.135.136.332.163.605.164h10.848l3.874-.001c.478 0 .682-.202.684-.675v-.128c.001-.498.002-1.014 0-1.52" mask="url(#9gvn8txikb)"/>
                    </g>
                </g>
            </g>
        </g>
    </g>
</svg>
