<svg xmlns="http://www.w3.org/2000/svg" xmlns:xlink="http://www.w3.org/1999/xlink" width="19" height="10" viewBox="0 0 19 10">
    <defs>
        <path id="3nxh6imfia" d="M0 0.041L18.926 0.041 18.926 4.297 0 4.297z"/>
    </defs>
    <g fill="none" fill-rule="evenodd">
        <g>
            <g>
                <g>
                    <g transform="translate(-602.000000, -54.000000) translate(602.000000, 54.000000) translate(0.000000, 0.072773)">
                        <mask id="mtxchl2pzb" fill="#fff">
                            <use xlink:href="#3nxh6imfia"/>
                        </mask>
                        <path fill="#FFF" d="M6.664 1.121c.613.006 1.088.467 1.085 1.052-.002.585-.482 1.043-1.094 1.044-.607 0-1.1-.462-1.106-1.038-.006-.587.498-1.064 1.115-1.058M.462 2.691c.107.017.217.015.326.015 1.127.001 2.255.005 3.382-.002.223-.001.346.048.439.27.338.815 1.174 1.334 2.064 1.323.909-.011 1.699-.53 2.033-1.364.077-.19.187-.226.375-.225 1.335.006 2.67.003 4.005.003 1.286 0 3.759-.004 5.045-.005.531 0 .802-.19.795-.552-.008-.348-.273-.523-.793-.523-2.611 0-6.41 0-9.021.003-.189 0-.32-.01-.405-.225C8.372.564 7.563.04 6.65.041c-.897 0-1.709.523-2.048 1.346-.08.195-.183.25-.39.248-1.137-.008-2.275-.004-3.412-.002-.118 0-.24-.002-.355.019-.265.046-.447.27-.444.528.003.256.191.47.462.512" mask="url(#mtxchl2pzb)"/>
                    </g>
                    <path fill="#FFF" d="M13.45 8.879c-.614-.007-1.088-.467-1.086-1.052.003-.585.483-1.043 1.094-1.044.608 0 1.1.462 1.107 1.038.005.587-.498 1.064-1.116 1.058m5.015-1.57c-.107-.017-.217-.015-.326-.015-1.127-.001-1.067-.005-2.195.002-.222.001-.346-.048-.438-.27-.339-.815-1.174-1.334-2.065-1.323-.908.011-1.698.53-2.033 1.364-.077.19-.186.226-.374.225-1.335-.006-2.67-.003-4.006-.003v.005H.795c-.531 0-.802.19-.795.552.007.348.273.52.793.52 2.611 0 7.597.003 10.208 0 .19 0 .32.01.405.224.336.846 1.144 1.37 2.058 1.37.897-.002 1.71-.524 2.049-1.347.08-.195.182-.25.39-.248 1.137.008 1.087.004 2.224.002.118 0 .24.002.355-.019.265-.046.447-.27.444-.528-.003-.256-.191-.47-.462-.512" transform="translate(-602.000000, -54.000000) translate(602.000000, 54.000000)"/>
                </g>
            </g>
        </g>
    </g>
</svg>
