<svg xmlns="http://www.w3.org/2000/svg" width="46" height="46" viewBox="0 0 46 46">
    <g fill="none" fill-rule="evenodd">
        <g>
            <g transform="translate(-555.000000, -221.000000) translate(555.000000, 221.000000)">
                <rect width="46" height="46" fill="#D1D1D1" rx="17"/>
                <g fill="#FFF" fill-rule="nonzero">
                    <g>
                        <path d="M4.936 15.148c-1.865 0-3.383-1.484-3.383-3.309 0-1.768 1.425-3.216 3.21-3.305l1.236-1.41C5.656 7.05 5.3 7.01 4.936 7.01 2.214 7.01 0 9.177 0 11.839c0 2.663 2.214 4.829 4.936 4.829 1.879 0 3.516-1.033 4.35-2.55H7.384c-.616.634-1.486 1.03-2.448 1.03z" transform="translate(10.000000, 15.000000)"/>
                        <path d="M20.45 12.108c.162.393.608.578.996.415.388-.164.571-.614.41-1.007l-3.762-9.128 1.67-.563c.398-.134.613-.57.48-.973-.133-.404-.563-.622-.962-.487l-2.446.824c-.42.142-.632.613-.462 1.026l.478 1.161-6.671 1.754-.686-1.617h1.059c.42 0 .761-.344.761-.77 0-.424-.34-.769-.761-.769H7.293c-.42 0-.761.345-.761.77 0 .425.34.77.76.77h.547l1.013 2.39-4.583 5.407c-.193.228-.238.55-.114.823.125.273.395.448.692.448h7.338c.243 0 .471-.118.615-.316l4.91-6.81 2.74 6.652zM6.502 11.042l3.019-3.56 1.51 3.56H6.5zm5.855-.776l-1.57-3.705 5.235-1.376-3.665 5.081z" transform="translate(10.000000, 15.000000)"/>
                        <path d="M21.638 7.01l.715 1.72c1.243.478 2.128 1.686 2.128 3.098 0 1.829-1.485 3.317-3.31 3.317-1.824 0-3.309-1.488-3.309-3.317 0-.477.102-.93.283-1.34l-.714-1.718c-.68.835-1.088 1.9-1.088 3.058 0 2.669 2.166 4.84 4.828 4.84 2.663 0 4.829-2.171 4.829-4.84 0-2.511-1.918-4.581-4.362-4.817z" transform="translate(10.000000, 15.000000)"/>
                    </g>
                </g>
            </g>
        </g>
    </g>
</svg>
