<svg xmlns="http://www.w3.org/2000/svg" width="8" height="14" viewBox="0 0 8 14">
    <g fill="none" fill-rule="evenodd">
        <g fill="#000" fill-rule="nonzero">
            <g>
                <g>
                    <g>
                        <path d="M6.777 6.562L.847.495C.655.296.34.297.146.495c-.194.2-.193.523.001.722l5.576 5.706L.146 12.63c-.194.199-.195.522-.001.721.097.1.225.15.352.15.127 0 .254-.05.35-.149l5.93-6.067c.094-.095.146-.225.146-.36 0-.136-.053-.266-.146-.362z" transform="translate(-551.000000, -619.000000) translate(542.000000, 612.000000) translate(13.500000, 13.500000) rotate(-180.000000) translate(-13.500000, -13.500000) translate(0.000000, -0.000000) translate(13.846154, 13.153846) rotate(-360.000000) translate(-13.846154, -13.153846) translate(10.384615, 6.230769)"/>
                    </g>
                </g>
            </g>
        </g>
    </g>
</svg>
