<svg xmlns="http://www.w3.org/2000/svg" width="60" height="38" viewBox="0 0 60 38">
    <g fill="none" fill-rule="evenodd">
        <g fill="#FFF" fill-rule="nonzero">
            <g>
                <g>
                    <g>
                        <path d="M11.39 34.44c-4.304 0-7.806-3.375-7.806-7.523 0-4.02 3.287-7.313 7.407-7.514l2.852-3.207c-.79-.168-1.611-.257-2.453-.257C5.11 15.939 0 20.864 0 26.917s5.11 10.977 11.39 10.977c4.337 0 8.115-2.349 10.039-5.795H17.04c-1.423 1.44-3.43 2.34-5.651 2.34z" transform="translate(-584.000000, -435.000000) translate(557.000000, 388.000000) translate(27.000000, 47.000000)"/>
                        <path d="M47.193 27.528c.374.893 1.402 1.314 2.298.943.894-.372 1.318-1.397.945-2.289l-8.68-20.753 3.851-1.28c.92-.305 1.417-1.296 1.11-2.213-.306-.917-1.3-1.412-2.22-1.107l-5.645 1.874c-.969.322-1.459 1.395-1.066 2.333l1.103 2.64-15.395 3.987-1.582-3.675h2.443c.97 0 1.757-.784 1.757-1.75s-.786-1.75-1.757-1.75H16.83c-.97 0-1.757.784-1.757 1.75s.786 1.75 1.757 1.75h1.26l2.339 5.435L9.852 25.716c-.447.52-.55 1.25-.263 1.87.287.621.91 1.019 1.596 1.019h16.933c.562 0 1.09-.267 1.42-.72l11.33-15.479 6.325 15.122zm-32.189-2.423l6.967-8.097 3.483 8.097h-10.45zm13.513-1.765l-3.624-8.424 12.08-3.128-8.456 11.552z" transform="translate(-584.000000, -435.000000) translate(557.000000, 388.000000) translate(27.000000, 47.000000)"/>
                        <path d="M49.934 15.939l1.65 3.91c2.867 1.086 4.91 3.832 4.91 7.042 0 4.158-3.426 7.54-7.637 7.54-4.21 0-7.636-3.382-7.636-7.54 0-1.084.234-2.114.653-3.046l-1.648-3.905c-1.569 1.896-2.512 4.317-2.512 6.95 0 6.068 4.999 11.004 11.143 11.004C55.001 37.894 60 32.958 60 26.891c0-5.709-4.425-10.415-10.066-10.952z" transform="translate(-584.000000, -435.000000) translate(557.000000, 388.000000) translate(27.000000, 47.000000)"/>
                    </g>
                </g>
            </g>
        </g>
    </g>
</svg>
