<svg xmlns="http://www.w3.org/2000/svg" width="22" height="24" viewBox="0 0 22 24">
    <g fill="none" fill-rule="evenodd">
        <g>
            <g transform="translate(-368 -189) translate(368 189)">
                <rect width="22" height="24" fill="#EDEDED" rx="7"/>
                <g fill="#FFF" fill-rule="nonzero">
                    <g>
                        <path d="M2.278 8.157c-.86 0-1.561-.8-1.561-1.782 0-.952.657-1.732 1.481-1.78l.57-.76c-.158-.039-.322-.06-.49-.06C1.022 3.775 0 4.941 0 6.375c0 1.434 1.022 2.6 2.278 2.6.867 0 1.623-.556 2.008-1.373h-.878c-.284.341-.686.555-1.13.555z" transform="translate(5 7)"/>
                        <path d="M9.439 6.52c.074.211.28.31.46.223.178-.088.263-.33.188-.542L8.351 1.286l.77-.303c.185-.073.284-.307.223-.524-.062-.218-.26-.335-.445-.263L7.77.64c-.193.076-.291.33-.213.553l.22.625-3.078.944-.317-.87h.49c.193 0 .35-.186.35-.415 0-.228-.157-.414-.35-.414H3.365c-.194 0-.351.186-.351.414 0 .23.157.415.35.415h.253l.468 1.287L1.97 6.091c-.089.123-.11.296-.052.443.057.147.182.24.319.24h3.387c.112 0 .217-.062.284-.17l2.266-3.666L9.439 6.52zM3 5.946l1.393-1.918.697 1.918H3zm2.702-.418L4.98 3.533l2.416-.741-1.692 2.736z" transform="translate(5 7)"/>
                        <path d="M9.987 3.775l.33.926c.573.257.982.908.982 1.668 0 .985-.685 1.786-1.528 1.786-.842 0-1.527-.801-1.527-1.786 0-.257.047-.5.13-.721l-.329-.925c-.314.449-.502 1.022-.502 1.646 0 1.437 1 2.606 2.228 2.606 1.23 0 2.229-1.17 2.229-2.606 0-1.352-.885-2.467-2.013-2.594z" transform="translate(5 7)"/>
                    </g>
                </g>
            </g>
        </g>
    </g>
</svg>
