<svg xmlns="http://www.w3.org/2000/svg" xmlns:xlink="http://www.w3.org/1999/xlink" width="46" height="46" viewBox="0 0 46 46">
    <defs>
        <path id="tpgwt9kzka" d="M0 0.073L14.275 0.073 14.275 19.899 0 19.899z"/>
    </defs>
    <g fill="none" fill-rule="evenodd">
        <g>
            <g transform="translate(-555.000000, -598.000000) translate(555.000000, 598.000000)">
                <rect width="46" height="46" fill="#D1D1D1" rx="17"/>
                <g>
                    <g>
                        <g transform="translate(15.000000, 13.000000) translate(0.000000, 0.027576)">
                            <mask id="5yfej678hb" fill="#fff">
                                <use xlink:href="#tpgwt9kzka"/>
                            </mask>
                            <path fill="#FFF" d="M8.715 9.99c0 .447-.005.893.001 1.339.007.467.303.744.788.747.38.002.762.01 1.143-.003.2-.007.255.07.251.25-.008.361-.005.723 0 1.085.005.52.282.785.823.788.78.003 1.559.005 2.338 0 .179 0 .253.033.199.23-.785 2.844-2.587 4.72-5.587 5.323-3.973.798-7.71-1.657-8.514-5.533-.417-2.01.009-3.866 1.137-5.596C2.967 6.055 4.612 3.472 6.269.897c.1-.157.2-.315.308-.468.34-.486 1.007-.472 1.337.033.45.689.894 1.382 1.339 2.074.642.998 1.282 2 1.928 2.995.104.16.158.274-.049.407-.184.117-.237.32-.236.534.003.388-.004.775.003 1.162.003.171-.06.238-.243.233-.38-.011-.761-.006-1.142-.003-.505.004-.793.278-.798.763-.005.455-.001.91-.001 1.364" mask="url(#5yfej678hb)"/>
                        </g>
                        <path fill="#FFF" d="M11.219 9.277c.285 0 .571-.009.856.002.17.007.226-.05.224-.215-.008-.555.003-1.11-.006-1.666-.003-.184.055-.254.251-.246.337.013.676.014 1.012 0 .201-.01.254.07.251.25-.006.52.013 1.043-.008 1.564-.01.264.083.325.34.316.535-.019 1.073 0 1.609-.009.183-.003.244.062.24.233-.006.328-.003.657.005.985.004.172-.063.236-.244.233-.545-.01-1.09.01-1.635-.011-.263-.01-.321.081-.313.316.016.512 0 1.026.012 1.539.004.201-.056.29-.279.278-.328-.016-.658-.014-.986-.002-.191.006-.259-.054-.255-.243.01-.547-.004-1.094.007-1.64.003-.185-.048-.25-.247-.246-.562.012-1.125-.003-1.687.007-.192.004-.262-.054-.255-.243.013-.328.01-.656.001-.984-.004-.161.052-.227.224-.221.294.01.588.003.883.003" transform="translate(15.000000, 13.000000)"/>
                    </g>
                </g>
            </g>
        </g>
    </g>
</svg>
