<svg xmlns="http://www.w3.org/2000/svg" xmlns:xlink="http://www.w3.org/1999/xlink" width="23" height="24" viewBox="0 0 23 24">
    <defs>
        <path id="ti994l3vaa" d="M0 0.04L7.137 0.04 7.137 10.944 0 10.944z"/>
    </defs>
    <g fill="none" fill-rule="evenodd">
        <g>
            <g transform="translate(-419 -189) translate(419 189)">
                <rect width="23" height="24" fill="#FC261A" rx="7"/>
                <g>
                    <g>
                        <g transform="translate(8 6) translate(0 .015)">
                            <mask id="hcyloo8abb" fill="#fff">
                                <use xlink:href="#ti994l3vaa"/>
                            </mask>
                            <path fill="#FFF" d="M4.358 5.495c0 .245-.003.49 0 .736.004.257.151.409.394.41.19.002.381.007.571 0 .1-.005.128.038.126.136-.004.2-.002.398 0 .598.002.286.14.431.412.433.39.001.779.003 1.168 0 .09 0 .127.018.1.126-.393 1.565-1.294 2.596-2.794 2.928C2.35 11.3.481 9.95.078 7.819-.13 6.713.083 5.692.647 4.74 1.483 3.33 2.306 1.91 3.134.493c.05-.086.1-.173.154-.257.17-.268.504-.26.669.018.225.38.447.76.67 1.14.32.55.64 1.1.964 1.648.052.088.079.15-.025.224-.092.065-.119.176-.118.294.002.213-.002.426.002.639.001.094-.03.13-.122.128-.19-.006-.38-.004-.571-.002-.252.002-.396.153-.399.42-.003.25 0 .5 0 .75" mask="url(#hcyloo8abb)"/>
                        </g>
                        <path fill="#FFF" d="M5.61 5.102c.142 0 .285-.004.428.002.084.003.113-.028.111-.119-.004-.305.002-.61-.003-.916-.001-.102.028-.14.126-.136.169.008.338.008.506 0 .1-.004.127.04.126.138-.004.286.006.574-.004.86-.006.145.041.18.17.174.267-.01.536 0 .804-.005.091-.002.122.034.12.128-.003.18-.002.361.002.542.002.094-.03.13-.122.128-.272-.005-.545.006-.817-.006-.131-.006-.16.045-.157.174.009.282 0 .564.006.846.003.111-.027.16-.139.153-.164-.009-.329-.008-.493-.001-.096.004-.13-.03-.128-.134.005-.3-.001-.601.004-.902.002-.101-.024-.137-.123-.135-.282.007-.563-.001-.844.004-.096.002-.131-.03-.127-.134.006-.18.004-.36 0-.54-.002-.09.026-.126.112-.122.147.005.294.001.441.001" transform="translate(8 6)"/>
                    </g>
                </g>
            </g>
        </g>
    </g>
</svg>
