<svg width="14" height="14" viewBox="0 0 14 14" fill="none" xmlns="http://www.w3.org/2000/svg">
<path d="M0.646447 13.3536C0.451184 13.1583 0.451184 12.8417 0.646447 12.6464L6.29289 7L0.646447 1.35355C0.451184 1.15829 0.451184 0.841709 0.646447 0.646447C0.841709 0.451185 1.15829 0.451185 1.35355 0.646447L7 6.29289L12.6464 0.646447C12.8417 0.451184 13.1583 0.451184 13.3536 0.646447C13.5488 0.841709 13.5488 1.15829 13.3536 1.35355L7.70711 7L13.3536 12.6464C13.5488 12.8417 13.5488 13.1583 13.3536 13.3536C13.1583 13.5488 12.8417 13.5488 12.6464 13.3536L7 7.70711L1.35355 13.3536C1.15829 13.5488 0.841709 13.5488 0.646447 13.3536Z" fill="white"/>
</svg>
