<svg xmlns="http://www.w3.org/2000/svg" width="17" height="18" viewBox="0 0 17 18">
    <g fill="none" fill-rule="evenodd">
        <g fill="#3C6687" fill-rule="nonzero">
            <g>
                <path d="M8.54.662h-.028C3.817.662 0 4.411 0 9.02c0 1.881.654 3.708 1.85 5.179L.613 17.028c-.102.232.01.5.241.596.084.037.177.046.265.032l4.54-.783c.91.323 1.866.487 2.83.482 4.695 0 8.512-3.748 8.512-8.358.01-4.595-3.78-8.33-8.46-8.335zM5.625 7.34h2.505c.255 0 .464.205.464.456 0 .25-.209.455-.464.455H5.626c-.255 0-.463-.205-.463-.455s.208-.456.463-.456zm5.752 3.189H5.626c-.255 0-.463-.205-.463-.456 0-.25.208-.455.463-.455h5.752c.255 0 .464.205.464.455s-.209.456-.464.456z" transform="translate(-171.000000, -580.000000) translate(171.000000, 580.000000)"/>
            </g>
        </g>
    </g>
</svg>
