<svg xmlns="http://www.w3.org/2000/svg" xmlns:xlink="http://www.w3.org/1999/xlink" width="21" height="20" viewBox="0 0 21 20">
    <defs>
        <path id="86u2xcv7da" d="M0 0.011L20.911 0.011 20.911 4.397 0 4.397z"/>
    </defs>
    <g fill="none" fill-rule="evenodd">
        <g>
            <g>
                <g>
                    <path fill="#3C6687" d="M5.06 16.989c.247 0 .494.005.742-.001.383-.01.601-.22.608-.607.009-.51.007-1.02 0-1.53-.005-.349-.192-.558-.53-.568-.543-.014-1.087-.014-1.631.001-.314.01-.505.215-.512.534-.01.543-.01 1.087.002 1.63.007.346.208.53.554.54.256.006.511 0 .767 0m.03-8.661v.002c-.263 0-.527-.004-.79 0-.36.008-.556.194-.562.557-.009.527-.01 1.054-.002 1.58.005.351.19.556.532.564.527.013 1.055.013 1.582-.004.343-.011.549-.233.556-.581.011-.527.012-1.054.002-1.58-.006-.348-.2-.53-.551-.537-.256-.006-.511-.001-.767-.001m5.153 8.661c.263 0 .527.006.79-.002.353-.01.523-.167.531-.52.013-.551.013-1.103.001-1.654-.006-.317-.2-.52-.514-.528-.543-.015-1.087-.015-1.63-.001-.33.008-.52.21-.525.543-.01.543-.01 1.086 0 1.629.007.336.199.521.532.532.271.008.543.001.815.001m3.87-7.328h.004c0 .276-.007.552.001.827.01.328.181.531.498.54.568.016 1.137.015 1.705-.003.303-.01.463-.194.468-.506.01-.551.01-1.103 0-1.655-.005-.329-.204-.527-.532-.532-.535-.008-1.07-.009-1.606-.002-.341.005-.526.2-.536.554-.007.259-.001.518-.001.777m-3.886-1.334h-.769c-.372.011-.56.196-.565.58-.006.518-.006 1.038 0 1.557.006.357.183.556.53.565.544.015 1.089.015 1.633.001.338-.008.502-.18.509-.52.01-.553.01-1.106-.004-1.659-.008-.335-.204-.514-.542-.522-.264-.006-.528-.001-.792-.002m5.228 8.663h.395c.14 0 .28.004.42-.002.343-.015.514-.184.52-.535.007-.535.006-1.07 0-1.605-.004-.333-.189-.552-.508-.562-.551-.017-1.104-.016-1.655 0-.314.008-.505.216-.511.532-.01.543-.01 1.087 0 1.63.005.346.2.532.548.54.264.008.527.002.791.002m5.213-11.121c.238-.001.301.063.3.305-.007 3.827-.004 7.654-.005 11.482 0 1.378-.925 2.319-2.3 2.322-2.162.006-4.325.004-6.488.004-3.384 0-6.768-.022-10.152.008C.653 20 .017 19.115.014 17.946c-.004-1.733-.002-3.467-.002-5.2l.001-6.532c0-.376-.045-.34.326-.34l10.153-.001c3.392 0 6.785.003 10.177-.005z" transform="translate(-171.000000, -697.000000) translate(171.000000, 697.000000)"/>
                    <g transform="translate(-171.000000, -697.000000) translate(171.000000, 697.000000) translate(0.000000, 0.089246)">
                        <mask id="6lz5qsojtb" fill="#fff">
                            <use xlink:href="#86u2xcv7da"/>
                        </mask>
                        <path fill="#3C6687" d="M10.45 4.395H.349c-.335 0-.341 0-.334-.336.018-.82-.067-1.644.044-2.46C.194.6.883.018 1.878.017c.529 0 1.057.005 1.585-.003.163-.002.214.053.213.217-.008.594-.008 1.189 0 1.783.005.327.228.586.525.644.299.058.602-.11.726-.399.052-.12.05-.244.05-.37.002-.552.006-1.105-.002-1.658-.002-.16.043-.218.21-.218 3.342.005 6.685.005 10.028.001.17 0 .208.065.207.221-.006.586-.008 1.173 0 1.759.006.345.226.607.533.665.29.054.586-.105.712-.382.057-.126.06-.26.06-.393.001-.536.01-1.073-.004-1.608-.005-.215.067-.268.269-.264.553.014 1.106-.005 1.659.008.731.016 1.345.304 1.823.87.285.337.432.73.433 1.174 0 .687-.01 1.374.006 2.06.005.233-.076.274-.283.274-3.392-.006-6.785-.004-10.177-.004v.002z" mask="url(#6lz5qsojtb)"/>
                    </g>
                </g>
            </g>
        </g>
    </g>
</svg>
