<svg xmlns="http://www.w3.org/2000/svg" width="14" height="14" viewBox="0 0 14 14">
    <g fill="none" fill-rule="evenodd">
        <g fill="#000" fill-rule="nonzero">
            <g>
                <g>
                    <path d="M12.906 8.784c-.192 0-.348.157-.348.35v3.108c0 .58-.468 1.05-1.045 1.05H1.741c-.577 0-1.044-.47-1.044-1.05V3.12c0-.58.467-1.05 1.044-1.05h3.092c.193 0 .349-.157.349-.35 0-.193-.156-.35-.349-.35H1.741C.78 1.372.001 2.155 0 3.121v9.12c.001.967.78 1.75 1.741 1.75h9.772c.961 0 1.74-.783 1.741-1.75V9.135c0-.193-.156-.35-.348-.35z" transform="translate(-393.000000, -145.000000) translate(393.000000, 145.000000)"/>
                    <path d="M13.116.47c-.612-.615-1.604-.615-2.216 0L4.687 6.715c-.043.042-.073.096-.09.154l-.816 2.964c-.034.122 0 .252.089.341.089.09.218.124.339.09l2.95-.821c.058-.016.11-.047.153-.09l6.213-6.244c.611-.616.611-1.612 0-2.228l-.409-.41zm-7.67 6.472l5.085-5.11 1.64 1.648-5.085 5.11-1.64-1.648zm-.328.66l1.31 1.318-1.812.504.502-1.821zm7.915-4.988l-.37.37-1.64-1.647.37-.372c.34-.341.89-.341 1.23 0l.41.411c.339.342.339.896 0 1.238z" transform="translate(-393.000000, -145.000000) translate(393.000000, 145.000000)"/>
                </g>
            </g>
        </g>
    </g>
</svg>
