<svg xmlns="http://www.w3.org/2000/svg" xmlns:xlink="http://www.w3.org/1999/xlink" width="16" height="21" viewBox="0 0 16 21">
    <defs>
        <path id="9uzsda632a" d="M0.001 0L16 0 16 21 0.001 21z"/>
    </defs>
    <g fill="none" fill-rule="evenodd">
        <g>
            <g transform="translate(-171.000000, -755.000000) translate(171.000000, 755.000000)">
                <mask id="sunn86oo1b" fill="#fff">
                    <use xlink:href="#9uzsda632a"/>
                </mask>
                <path fill="#3C6687" d="M11.907 8.553l-1.755 1.765-2.07 2.084c-.404.408-.808.814-1.21 1.223-.051.054-.081.055-.134 0-.778-.792-1.56-1.581-2.34-2.372-.11-.112-.218-.227-.33-.34-.04-.038-.044-.064-.002-.106.34-.34.682-.678 1.02-1.02.048-.048.074-.03.112.009.274.277.55.55.826.827.24.242.484.482.723.724.045.047.07.045.116 0 .73-.74 1.462-1.477 2.192-2.214l1.522-1.536c.074-.076.149-.151.22-.23.038-.04.065-.045.108-.002l1.027 1.065c.015.015.032.028.032.053-.01.03-.036.049-.057.07M14.15 0H1.85C.829 0 0 .829 0 1.85v17.3C0 20.172.83 21 1.85 21h12.3c1.023 0 1.85-.828 1.85-1.85V1.85C16 .83 15.174 0 14.15 0" mask="url(#sunn86oo1b)"/>
            </g>
        </g>
    </g>
</svg>
