<svg xmlns="http://www.w3.org/2000/svg" width="21" height="21" viewBox="0 0 21 21">
    <g fill="none" fill-rule="evenodd">
        <g fill="#98989F" fill-rule="nonzero">
            <g>
                <g>
                    <path d="M20.434 9.134l-.002-.001L11.866.567C11.501.2 11.016 0 10.499 0c-.516 0-1.002.201-1.367.566L.57 9.128l-.009.009c-.75.754-.748 1.978.004 2.73.344.344.798.543 1.283.564l.06.003h.341v6.304C2.249 19.985 3.264 21 4.512 21h3.351c.34 0 .615-.275.615-.615v-4.943c0-.569.463-1.032 1.033-1.032h1.976c.57 0 1.033.463 1.033 1.032v4.943c0 .34.275.615.615.615h3.351c1.248 0 2.263-1.015 2.263-2.262v-6.304h.317c.516 0 1.001-.202 1.367-.567.753-.753.753-1.979 0-2.733z" transform="translate(-32.000000, -206.000000) translate(42.500000, 216.500000) scale(-1, 1) translate(-42.500000, -216.500000) translate(32.000000, 206.000000)"/>
                </g>
            </g>
        </g>
    </g>
</svg>
