<svg xmlns="http://www.w3.org/2000/svg" width="17" height="17" viewBox="0 0 17 17">
    <g fill="none" fill-rule="evenodd" opacity=".7">
        <g fill="#3C3C3C" fill-rule="nonzero">
            <g>
                <path d="M16.76 15.791l-4.825-4.834c.934-1.157 1.497-2.627 1.497-4.228C13.432 3.02 10.42 0 6.716 0 3.013 0 0 3.02 0 6.73c0 3.71 3.013 6.728 6.716 6.728 1.598 0 3.065-.563 4.22-1.5l4.824 4.835c.138.138.319.207.5.207.18 0 .362-.07.5-.207.276-.277.276-.725 0-1.002zm-10.044-3.75c-2.924 0-5.302-2.382-5.302-5.312s2.378-5.312 5.302-5.312c2.924 0 5.302 2.383 5.302 5.312 0 2.93-2.378 5.313-5.302 5.313z" transform="translate(-157.000000, -51.000000) translate(157.000000, 51.000000)"/>
            </g>
        </g>
    </g>
</svg>
