<svg xmlns="http://www.w3.org/2000/svg" width="21" height="22" viewBox="0 0 21 22">
    <g fill="none" fill-rule="evenodd">
        <g fill="#98989F" fill-rule="nonzero">
            <g>
                <g>
                    <g>
                        <path d="M7.875 10.5c0-1.447 1.178-2.625 2.625-2.625H14v-7C14 .392 13.609 0 13.125 0H.875C.391 0 0 .392 0 .875v19.25c0 .483.391.875.875.875h12.25c.484 0 .875-.392.875-.875v-7h-3.5c-1.447 0-2.625-1.178-2.625-2.625z" transform="translate(-36.000000, -792.000000) translate(36.000000, 792.500000)"/>
                        <path d="M20.803 11.053l.008-.01c.015-.02.03-.038.043-.059l.017-.028.026-.044.018-.038.018-.039.016-.044c.005-.012.01-.024.013-.036.005-.017.01-.034.013-.052l.008-.03c.005-.024.008-.048.01-.072l.003-.012c.005-.06.005-.119 0-.177l-.002-.013c-.003-.024-.006-.048-.011-.072l-.008-.03-.013-.052-.013-.036-.016-.044-.018-.039-.018-.038-.026-.043-.017-.03-.043-.058-.008-.01c-.02-.024-.04-.047-.063-.069l-3.496-3.497c-.342-.342-.895-.342-1.238 0-.342.343-.342.896 0 1.238l2.007 2.006H10.5c-.484 0-.875.392-.875.875s.391.875.875.875h7.513l-2.007 2.006c-.342.342-.342.895 0 1.238.171.17.395.256.619.256.224 0 .448-.086.619-.256l3.496-3.497c.022-.022.043-.045.063-.07z" transform="translate(-36.000000, -792.000000) translate(36.000000, 792.500000)"/>
                    </g>
                </g>
            </g>
        </g>
    </g>
</svg>
