<svg xmlns="http://www.w3.org/2000/svg" width="48" height="48" viewBox="0 0 48 48">
    <g fill="none" fill-rule="evenodd">
        <g fill="#FFF" fill-rule="nonzero">
            <g>
                <g>
                    <g>
                        <path d="M36.912 2.835c-3.736-3.736-9.81-3.748-13.546 0l-9.377 9.378L27.547 25.77l9.365-9.39c3.736-3.748 3.736-9.81 0-13.546zM27.3 8.377l-4.268 4.207-.012.012c-.495.483-1.275.47-1.745-.025-.482-.495-.47-1.274.025-1.744l4.28-4.206.013-.013c.495-.482 1.274-.47 1.744.025.47.483.458 1.274-.037 1.744zM12.232 13.957l-9.44 9.451c-3.723 3.749-3.723 9.798 0 13.547 3.774 3.724 9.848 3.724 13.621 0l9.39-9.427-13.571-13.571zM45.968 32.588L32.62 45.948c3.798 2.908 9.154 2.561 12.532-.816 3.39-3.377 3.736-8.746.816-12.544zM38.422 28.876c-5.258 0-9.526 4.256-9.526 9.526 0 2.103.693 4.145 1.967 5.802L44.21 30.856c-1.657-1.287-3.686-1.98-5.79-1.98z" transform="translate(-588.000000, -646.000000) translate(588.000000, 646.000000)"/>
                    </g>
                </g>
            </g>
        </g>
    </g>
</svg>
