<svg xmlns="http://www.w3.org/2000/svg" width="23" height="24" viewBox="0 0 23 24">
    <g fill="none" fill-rule="evenodd" opacity=".4">
        <g>
            <g transform="translate(-393 -189) translate(393 189)">
                <rect width="23" height="24" fill="#D1D1D1" rx="7"/>
                <g fill="#FFF" fill-rule="nonzero">
                    <g>
                        <g>
                            <path d="M8.46.65c-.857-.856-2.25-.86-3.105 0l-2.15 2.149 3.108 3.107 2.146-2.152c.856-.859.856-2.248 0-3.104zM6.255 1.92l-.978.964-.003.003c-.113.11-.292.107-.4-.006-.11-.113-.107-.292.006-.4l.981-.964.003-.003c.113-.11.292-.107.4.006.107.11.105.292-.009.4zM2.803 3.198L.64 5.364c-.853.86-.853 2.246 0 3.105.865.853 2.257.853 3.121 0l2.152-2.16-3.11-3.11zM10.534 7.468L7.475 10.53c.87.666 2.098.587 2.872-.187.777-.774.856-2.005.187-2.875zM8.805 6.618c-1.205 0-2.183.975-2.183 2.183 0 .481.159.95.45 1.33l3.06-3.06c-.38-.295-.845-.453-1.327-.453z" transform="translate(6 6)"/>
                        </g>
                    </g>
                </g>
            </g>
        </g>
    </g>
</svg>
