<svg xmlns="http://www.w3.org/2000/svg" width="46" height="46" viewBox="0 0 46 46">
    <g fill="none" fill-rule="evenodd">
        <g>
            <g transform="translate(-555.000000, -505.000000) translate(555.000000, 505.000000)">
                <rect width="46" height="46" fill="#D1D1D1" rx="17"/>
                <g fill="#FFF" fill-rule="nonzero">
                    <g>
                        <g>
                            <path d="M15.38 1.181c-1.557-1.556-4.087-1.562-5.644 0L5.829 5.09l5.65 5.649 3.901-3.912c1.557-1.562 1.557-4.088 0-5.645zm-4.005 2.31L9.597 5.243l-.006.005c-.206.201-.53.196-.726-.01-.201-.206-.196-.53.01-.727l1.784-1.752.005-.005c.206-.202.53-.196.726.01.196.2.191.53-.015.727zM5.097 5.815L1.164 9.754c-1.552 1.561-1.552 4.082 0 5.644 1.572 1.551 4.103 1.551 5.675 0l3.912-3.928-5.654-5.655zM19.153 13.578l-5.562 5.567c1.583 1.212 3.815 1.067 5.222-.34 1.413-1.407 1.557-3.644.34-5.227zM16.009 12.032c-2.19 0-3.97 1.773-3.97 3.969 0 .876.29 1.727.82 2.417l5.562-5.561c-.69-.536-1.536-.825-2.412-.825z" transform="translate(13.000000, 13.000000)"/>
                        </g>
                    </g>
                </g>
            </g>
        </g>
    </g>
</svg>
