<svg xmlns="http://www.w3.org/2000/svg" width="114" height="131" viewBox="0 0 114 131">
    <g fill="none" fill-rule="evenodd">
        <g>
            <g>
                <g transform="translate(-557.000000, -175.000000) translate(557.000000, 175.000000)">
                    <rect width="114" height="131" fill="#D8D8D8" rx="15"/>
                    <g fill="#FFF" fill-rule="nonzero">
                        <g>
                            <path d="M14.565 33.144c-.297-3.063.148-5.721 1.323-7.902 1.192-2.213 3.058-3.795 5.397-4.576.193-.065.388-.123.584-.175-.63-.74-.98-1.672-.98-2.656v-5.468c0-3.44-2.51-6.304-5.795-6.86-.043-.97-.301-2.243-1.185-3.34C12.749.729 10.888 0 8.377 0v2.695c1.646 0 2.798.387 3.423 1.15.438.536.575 1.204.603 1.734-3.105.698-5.43 3.476-5.43 6.788v5.43c0 1.281-.589 2.502-1.573 3.265-1.674 1.298-3.05 2.986-3.981 4.882C.44 27.936-.036 30.081.002 32.316.132 39.896 6.364 46 13.932 46h.17c1.9-.024 3.763-.437 5.476-1.198-.799-.884-1.538-1.909-2.206-3.064-1.507-2.61-2.53-5.742-2.807-8.594z" transform="translate(57.000000, 66.000000) scale(-1, 1) translate(-57.000000, -66.000000) translate(34.000000, 43.000000)"/>
                            <path d="M44.91 26.52c-.86-1.598-2.201-2.738-3.877-3.297-2.738-.914-5.916-.13-8.328 1.843.17-1.864.974-4.103 3.628-5.164l-1.001-2.503c-2.954 1.181-4.764 3.544-5.232 6.832-.025.17-.045.338-.06.504-2.352-1.728-5.323-2.373-7.902-1.512-1.676.56-3.017 1.7-3.877 3.297-.917 1.702-1.258 3.843-1.014 6.365.474 4.882 3.501 10.93 7.748 12.599.666.262 1.472.461 2.381.461 1.242 0 2.677-.373 4.21-1.47 2.653 1.9 5.013 1.628 6.59 1.01 4.247-1.67 7.274-7.718 7.747-12.6.245-2.522-.096-4.663-1.013-6.365z" transform="translate(57.000000, 66.000000) scale(-1, 1) translate(-57.000000, -66.000000) translate(34.000000, 43.000000)"/>
                        </g>
                    </g>
                </g>
            </g>
        </g>
    </g>
</svg>
