<svg xmlns="http://www.w3.org/2000/svg" width="23" height="24" viewBox="0 0 23 24">
    <g fill="none" fill-rule="evenodd">
        <g>
            <g transform="translate(-342 -189) translate(342 189)">
                <rect width="23" height="24" fill="#FC261A" rx="7"/>
                <g fill="#FFF" fill-rule="nonzero">
                    <g>
                        <path d="M3.483 7.926c-.071-.733.035-1.368.316-1.89.285-.53.732-.907 1.29-1.094.047-.016.094-.03.14-.042-.15-.177-.234-.4-.234-.635V2.957c0-.822-.6-1.507-1.386-1.64-.01-.232-.072-.537-.283-.799C3.049.174 2.604 0 2.003 0v.645c.394 0 .67.092.819.275.104.128.137.287.144.414-.742.167-1.299.831-1.299 1.623v1.299c0 .306-.14.598-.376.78-.4.311-.73.715-.952 1.168-.234.476-.348.99-.339 1.524C.031 9.54 1.522 11 3.331 11h.041c.455-.006.9-.104 1.31-.286-.191-.212-.368-.457-.528-.733-.36-.624-.605-1.373-.671-2.055z" transform="matrix(-1 0 0 1 17 6)"/>
                        <path d="M10.74 6.342c-.206-.382-.527-.655-.928-.789-.654-.218-1.415-.03-1.991.441.04-.446.233-.981.867-1.235l-.239-.598c-.706.282-1.14.847-1.251 1.633l-.015.12c-.562-.412-1.272-.567-1.89-.36-.4.133-.72.406-.926.788-.22.407-.301.919-.243 1.522.114 1.167.838 2.613 1.853 3.013.16.062.352.11.57.11.297 0 .64-.09 1.006-.352.635.455 1.199.39 1.576.242 1.016-.4 1.74-1.846 1.853-3.013.058-.603-.023-1.115-.243-1.522z" transform="matrix(-1 0 0 1 17 6)"/>
                    </g>
                </g>
            </g>
        </g>
    </g>
</svg>
