<svg xmlns="http://www.w3.org/2000/svg" width="46" height="46" viewBox="0 0 46 46">
    <g fill="none" fill-rule="evenodd">
        <g>
            <g transform="translate(-555.000000, -409.000000) translate(555.000000, 409.000000)">
                <rect width="46" height="46" fill="#FC261A" rx="17"/>
                <g fill="#FFF" fill-rule="nonzero">
                    <g>
                        <path d="M6.332 14.41c-.128-1.331.065-2.487.576-3.435.518-.963 1.33-1.65 2.346-1.99.084-.028.169-.053.254-.076-.274-.322-.426-.727-.426-1.155V5.377c0-1.496-1.091-2.74-2.52-2.982-.018-.423-.13-.976-.515-1.453C5.543.317 4.734 0 3.642 0v1.172c.716 0 1.217.168 1.488.5.19.233.25.523.263.754-1.35.303-2.362 1.511-2.362 2.951v2.36c0 .558-.255 1.089-.683 1.42-.728.565-1.326 1.299-1.731 2.123-.425.866-.633 1.799-.616 2.77C.057 17.346 2.767 20 6.057 20h.075c.825-.01 1.635-.19 2.38-.52-.347-.385-.669-.83-.959-1.333-.655-1.134-1.1-2.497-1.22-3.736z" transform="translate(23.000000, 23.000000) scale(-1, 1) translate(-23.000000, -23.000000) translate(13.000000, 13.000000)"/>
                        <path d="M19.526 11.53c-.374-.694-.957-1.19-1.686-1.433-1.19-.398-2.572-.057-3.62.801.074-.81.423-1.784 1.577-2.245l-.435-1.088c-1.285.513-2.071 1.54-2.275 2.97-.01.074-.02.147-.026.22-1.023-.752-2.315-1.032-3.436-.658-.728.243-1.311.739-1.685 1.433-.4.74-.547 1.671-.441 2.768.206 2.123 1.522 4.752 3.369 5.478.29.113.64.2 1.035.2.54 0 1.164-.162 1.83-.639 1.153.826 2.18.708 2.865.439 1.847-.726 3.163-3.355 3.369-5.478.106-1.097-.042-2.028-.44-2.768z" transform="translate(23.000000, 23.000000) scale(-1, 1) translate(-23.000000, -23.000000) translate(13.000000, 13.000000)"/>
                    </g>
                </g>
            </g>
        </g>
    </g>
</svg>
