<svg xmlns="http://www.w3.org/2000/svg" xmlns:xlink="http://www.w3.org/1999/xlink" width="27" height="14" viewBox="0 0 27 14">
    <defs>
        <path id="000sqa45xa" d="M0 0.089L26.976 0.089 26.976 13.094 0 13.094z"/>
    </defs>
    <g fill="none" fill-rule="evenodd">
        <g>
            <g>
                <g>
                    <g transform="translate(-730.000000, -135.000000) translate(730.000000, 135.000000) translate(0.000000, 0.001084)">
                        <mask id="qzg4q5y70b" fill="#fff">
                            <use xlink:href="#000sqa45xa"/>
                        </mask>
                        <path fill="#FFF" d="M25.488 11.912c-5.537 0-5.657-.002-11.194.003-.227 0-.273-.076-.272-.284.005-3.363.006-6.726-.001-10.09 0-.223.071-.275.283-.274 2.769.006 5.537.004 8.306.004h2.888c.297 0 .295 0 .295.292l.002 10.044c0 .305 0 .305-.307.305m-12.624-.304c0 .304 0 .304-.313.304H1.47c-.296 0-.296 0-.296-.292L1.173 1.576c0-.304 0-.305.304-.305 5.5 0 5.582.002 11.082.003.304 0 .305 0 .305.312v10.022M26.976.367c0-.241-.075-.279-.29-.278-.784.003-.888.004-.793.005H.32c-.36 0-.32-.032-.32.308v12.37c0 .358-.038.316.31.316l13.16.001c6.215 0 7.012-.001 13.227.005.21 0 .277-.041.277-.267-.008-4.154-.008-8.307 0-12.46" mask="url(#qzg4q5y70b)"/>
                    </g>
                    <path fill="#FFF" d="M8.979 4.506c-.081-.081-.146-.088-.228-.004-.204.21-.411.418-.622.621-.097.093-.072.162.013.244.152.145.301.294.445.448.051.055.167.096.122.188-.04.082-.15.043-.228.043-.85.003-1.7.002-2.55.002-.864 0-1.728.003-2.593-.003-.175-.001-.244.056-.234.234.013.21.003.421.003.632 0 .301.001.302.295.302h3.745c.428 0 .857 0 1.285.002.071.001.17-.038.208.038.04.083-.062.125-.11.175-.118.126-.24.25-.367.366-.109.1-.13.182-.008.294.2.182.389.377.576.572.091.095.162.107.261.007.651-.656 1.306-1.309 1.96-1.96.08-.08.088-.141.003-.226-.66-.656-1.32-1.315-1.976-1.975M23.863 6.293c.01-.185-.053-.25-.242-.249-.865.008-1.73.004-2.594.004-.872 0-1.745 0-2.617-.002-.063 0-.15.029-.179-.053-.024-.066.05-.101.09-.142.158-.161.315-.323.48-.477.103-.097.116-.174.006-.278-.192-.18-.379-.367-.559-.558-.101-.109-.176-.102-.278.001-.64.646-1.284 1.289-1.93 1.93-.088.087-.096.15-.005.241.651.647 1.3 1.295 1.946 1.946.097.098.168.096.261-.002.187-.196.378-.388.575-.574.104-.097.09-.169-.007-.259-.137-.127-.267-.264-.398-.399-.046-.047-.132-.089-.11-.157.029-.094.13-.049.197-.05.782-.001 1.564.002 2.346.002.917 0 1.835-.006 2.752 0 .186.001.282-.037.267-.248-.016-.225-.013-.452 0-.676" transform="translate(-730.000000, -135.000000) translate(730.000000, 135.000000)"/>
                </g>
            </g>
        </g>
    </g>
</svg>
