<svg xmlns="http://www.w3.org/2000/svg" xmlns:xlink="http://www.w3.org/1999/xlink" width="46" height="46" viewBox="0 0 46 46">
    <defs>
        <path id="skjynw9lra" d="M0.803 0.888L4.897 0.888 4.897 5.085 0.803 5.085z"/>
    </defs>
    <g fill="none" fill-rule="evenodd">
        <g>
            <g transform="translate(-555.000000, -316.000000) translate(555.000000, 316.000000)">
                <rect width="46" height="46" fill="#D1D1D1" rx="17"/>
                <g>
                    <g>
                        <path fill="#FFF" d="M7.873 2.9h7.876c.206 0 .374-.172.374-.385 0-.212-.168-.384-.374-.384H7.873c-.206 0-.375.172-.375.384 0 .213.169.385.375.385M.83 6.657h7.876c.206 0 .373-.172.373-.384 0-.212-.167-.385-.373-.385H.83c-.207 0-.375.173-.375.385 0 .212.168.384.375.384M2.943 10.611c0 .213.168.385.375.385h7.876c.207 0 .375-.172.375-.385 0-.212-.168-.384-.375-.384H3.318c-.207 0-.375.172-.375.384M7.451 15.078H.375c-.208 0-.375.172-.375.384 0 .213.167.384.375.384h7.076c.206 0 .375-.171.375-.384 0-.212-.169-.384-.375-.384" transform="translate(10.000000, 14.000000)"/>
                        <g transform="translate(10.000000, 14.000000) translate(17.333333, 0.223667)">
                            <mask id="hm248i2cnb" fill="#fff">
                                <use xlink:href="#skjynw9lra"/>
                            </mask>
                            <path fill="#FFF" d="M2.85 5.085c1.13 0 2.047-.94 2.047-2.098 0-1.16-.917-2.1-2.047-2.1-1.13 0-2.047.94-2.047 2.1 0 1.158.916 2.098 2.047 2.098" mask="url(#hm248i2cnb)"/>
                        </g>
                        <path fill="#FFF" d="M23.55 4.705c-1.175 1.689-2.748 1.883-4.443.853-.115-.07-.626-.36-.739-.429-2.724-1.658-5.445-1.008-7.27 1.612-.775 1.116 1.017 2.173 1.784 1.07.943-1.353 2.142-1.745 3.454-1.316-.672 1.195-1.259 2.383-2.087 4.07-.83 1.688-2.658 3.036-4.415 1.982-1.268-.76-2.412 1.109-1.147 1.866 2.4 1.438 5.213.555 6.648-1.314.05.027.103.051.16.072 1.174.42 2.711 1.536 3.18 1.932.47.395 1.274 2.41 1.752 3.423.58 1.228 2.452.333 1.87-.9-.541-1.149-1.451-3.442-2.16-4.022-.57-.466-1.673-1.331-2.611-1.823.633-1.258 1.294-2.505 1.989-3.728 2.214.695 4.32-.125 5.818-2.28.777-1.114-1.016-2.17-1.783-1.068" transform="translate(10.000000, 14.000000)"/>
                    </g>
                </g>
            </g>
        </g>
    </g>
</svg>
