<svg xmlns="http://www.w3.org/2000/svg" width="19" height="19" viewBox="0 0 19 19">
    <g fill="none" fill-rule="evenodd" opacity=".8">
        <g fill="#A0A2AE" fill-rule="nonzero">
            <g>
                <g>
                    <g transform="translate(-33.000000, -350.000000) translate(33.000000, 350.000000)">
                        <path d="M1.374 12.09h5.888c.758 0 1.374-.58 1.374-1.295v-2.59c0-.715-.616-1.296-1.374-1.296H1.374C.616 6.91 0 7.49 0 8.205v2.59c0 .715.616 1.296 1.374 1.296zM1.374 19h5.888c.758 0 1.374-.581 1.374-1.295v-2.591c0-.715-.616-1.296-1.374-1.296H1.374C.616 13.818 0 14.4 0 15.114v2.59C0 18.42.616 19 1.374 19zM17.626 6.91h-5.888c-.758 0-1.374.58-1.374 1.295v2.59c0 .715.616 1.296 1.374 1.296h5.888c.758 0 1.374-.581 1.374-1.296v-2.59c0-.715-.616-1.296-1.374-1.296zM17.626 13.818h-5.888c-.758 0-1.374.581-1.374 1.296v2.59c0 .715.616 1.296 1.374 1.296h5.888c.758 0 1.374-.581 1.374-1.295v-2.591c0-.715-.616-1.296-1.374-1.296zM17.583 0H7.463C6.68 0 6.044.678 6.044 1.511v2.16c0 .833.636 1.51 1.417 1.51h10.121c.781 0 1.417-.677 1.417-1.51V1.51C19 .678 18.364 0 17.583 0z"/>
                        <circle cx="2.591" cy="2.591" r="2.591"/>
                    </g>
                </g>
            </g>
        </g>
    </g>
</svg>
