<svg xmlns="http://www.w3.org/2000/svg" width="18" height="21" viewBox="0 0 18 21">
    <g fill="none" fill-rule="evenodd" opacity=".8">
        <g fill="#A0A2AE" fill-rule="nonzero">
            <g>
                <g>
                    <g>
                        <path d="M8.847 10.116c1.425 0 2.658-.499 3.667-1.482 1.008-.983 1.519-2.186 1.519-3.576 0-1.39-.511-2.593-1.52-3.576C11.505.498 10.271 0 8.847 0 7.42 0 6.187.498 5.18 1.482c-1.009.983-1.52 2.186-1.52 3.576 0 1.39.511 2.593 1.52 3.576 1.008.983 2.242 1.482 3.667 1.482zM17.921 16.148c-.029-.41-.088-.856-.174-1.327-.088-.475-.2-.924-.335-1.334-.139-.424-.328-.843-.562-1.244-.243-.417-.528-.78-.848-1.078-.335-.312-.745-.563-1.218-.747-.472-.182-.996-.274-1.555-.274-.22 0-.433.088-.843.349l-.878.552c-.282.175-.665.34-1.137.488-.46.145-.928.219-1.39.219-.46 0-.928-.074-1.389-.22-.471-.148-.853-.312-1.135-.487-.327-.204-.623-.39-.88-.553-.41-.26-.622-.348-.842-.348-.56 0-1.083.092-1.555.275-.473.182-.883.433-1.218.746-.32.299-.605.661-.848 1.078-.233.401-.423.82-.562 1.244-.135.41-.247.86-.334 1.334-.087.47-.146.917-.175 1.327-.029.402-.043.82-.043 1.24 0 1.097.357 1.984 1.062 2.639.696.646 1.617.973 2.736.973h10.368c1.12 0 2.04-.327 2.737-.973.705-.654 1.062-1.542 1.062-2.639 0-.423-.015-.84-.044-1.24z" transform="translate(-34.000000, -278.000000) translate(34.000000, 278.000000)"/>
                    </g>
                </g>
            </g>
        </g>
    </g>
</svg>
