<svg xmlns="http://www.w3.org/2000/svg" width="21" height="22" viewBox="0 0 21 22">
    <g fill="none" fill-rule="evenodd">
        <g fill="#BBBDC6" fill-rule="nonzero">
            <g>
                <g>
                    <path d="M10.5.5C4.7.5 0 5.201 0 11s4.7 10.5 10.5 10.5S21 16.799 21 11 16.3.5 10.5.5zm-.023 17.394c-.776 0-1.408-.632-1.408-1.409 0-.776.632-1.408 1.408-1.408.777 0 1.409.632 1.409 1.408 0 .777-.632 1.409-1.409 1.409zm2.207-6.915c-.609.57-1.011.946-1.011 1.857v.674c0 .17-.138.308-.309.308H9.69c-.17 0-.309-.138-.309-.308v-.674c0-1.871.973-2.784 1.682-3.451.605-.567 1.004-.942 1.004-1.84 0-.283 0-1.146-1.54-1.146-1.443 0-1.5.796-1.525 1.136l-.05.69c-.007.084-.046.16-.11.215-.064.053-.146.079-.23.07l-1.67-.167c-.167-.016-.29-.163-.277-.33l.049-.656c.149-1.975 1.652-3.25 3.83-3.25 1.139 0 2.097.319 2.77.924.684.613 1.046 1.488 1.046 2.53 0 1.85-.968 2.756-1.675 3.418z" transform="translate(-33 -753) translate(33 753)"/>
                </g>
            </g>
        </g>
    </g>
</svg>
