<svg xmlns="http://www.w3.org/2000/svg" width="24" height="25" viewBox="0 0 24 25">
    <g fill="none" fill-rule="evenodd">
        <g fill="#414141" fill-rule="nonzero">
            <g>
                <g>
                    <path d="M12 0C5.383 0 0 5.383 0 12s5.383 12 12 12 12-5.383 12-12S18.617 0 12 0zm6.89 9.973l-7.538 7.539c-.32.32-.747.497-1.2.497-.454 0-.88-.176-1.2-.497L5.109 13.67c-.32-.32-.497-.747-.497-1.2 0-.454.177-.88.497-1.2.32-.32.747-.497 1.2-.497.454 0 .88.176 1.2.497l2.643 2.642 6.338-6.339c.321-.32.747-.497 1.2-.497.454 0 .88.176 1.2.497.662.662.662 1.738 0 2.4z" transform="translate(-893.000000, -386.000000) translate(158.000000, 99.000000) translate(735.000000, 287.325248)"/>
                </g>
            </g>
        </g>
    </g>
</svg>
