<svg xmlns="http://www.w3.org/2000/svg" width="22" height="22" viewBox="0 0 22 22">
    <g fill="none" fill-rule="evenodd" opacity=".8">
        <g fill="#A0A2AE" fill-rule="nonzero">
            <g>
                <path d="M51.621 425.143l-.546-1.295s1.267-2.859 1.157-2.969l-1.678-1.639c-.117-.113-2.978 1.191-2.978 1.191l-1.32-.533S45.087 417 44.929 417h-2.37c-.164 0-1.242 2.906-1.242 2.906l-1.319.535s-2.922-1.242-3.034-1.135l-1.677 1.643c-.116.115 1.219 2.916 1.219 2.916l-.544 1.295S33 426.299 33 426.455v2.322c0 .16 2.969 1.217 2.969 1.217l.545 1.291s-1.268 2.861-1.157 2.971l1.679 1.641c.113.111 2.976-1.195 2.976-1.195l1.321.537s1.166 2.896 1.326 2.896h2.37c.163 0 1.244-2.906 1.244-2.906l1.32-.535s2.918 1.242 3.031 1.135l1.678-1.643c.115-.111-1.221-2.914-1.221-2.914l.546-1.295s2.963-1.143 2.963-1.299v-2.32c.001-.159-2.969-1.215-2.969-1.215zm-7.826 5.81c-1.905 0-3.459-1.52-3.459-3.387 0-1.865 1.554-3.385 3.459-3.385 1.908 0 3.459 1.52 3.459 3.385 0 1.868-1.551 3.387-3.459 3.387z" transform="translate(-33 -417)"/>
            </g>
        </g>
    </g>
</svg>
