<svg xmlns="http://www.w3.org/2000/svg" width="17" height="19" viewBox="0 0 17 19">
    <g fill="none" fill-rule="evenodd">
        <g fill="#3C6687" fill-rule="nonzero">
            <g>
                <g>
                    <path d="M8.354 19h-1.46c-.724 0-1.313-.6-1.313-1.336V8.461c0-.737.59-1.336 1.313-1.336h1.46c.724 0 1.313.6 1.313 1.336v9.203c0 .737-.59 1.336-1.313 1.336zM2.809 19h-1.46c-.724 0-1.313-.6-1.313-1.336V11.43c0-.737.59-1.336 1.313-1.336h1.46c.724 0 1.313.599 1.313 1.336v6.234c0 .737-.59 1.336-1.313 1.336zM12.44 19c-.725 0-1.314-.6-1.314-1.336V5.344h-.802c-.375 0-.705-.215-.861-.562-.157-.346-.103-.741.141-1.031l.009-.01L12.734.197c.111-.125.27-.197.435-.197.166 0 .324.072.435.197l3.122 3.544.008.01c.244.29.298.685.142 1.031-.157.347-.487.562-.862.562h-.802v12.32c0 .737-.59 1.336-1.313 1.336h-1.46z" transform="translate(-171.000000, -638.000000) translate(171.000000, 638.000000)"/>
                </g>
            </g>
        </g>
    </g>
</svg>
