<svg xmlns="http://www.w3.org/2000/svg" xmlns:xlink="http://www.w3.org/1999/xlink" width="46" height="46" viewBox="0 0 46 46">
    <defs>
        <path id="6iibl9dywa" d="M0 0.755L21 0.755 21 20.755 0 20.755z"/>
    </defs>
    <g fill="none" fill-rule="evenodd">
        <g>
            <g transform="translate(-555.000000, -695.000000) translate(555.000000, 695.000000)">
                <rect width="46" height="46" fill="#D1D1D1" rx="17"/>
                <g>
                    <g transform="translate(13.000000, 12.288889) translate(0.000000, 0.956522)">
                        <mask id="hxa9sth40b" fill="#fff">
                            <use xlink:href="#6iibl9dywa"/>
                        </mask>
                        <path fill="#FFF" d="M2.002 12.013c.786 0 1.572-.02 2.357.01.324.012.481-.11.63-.383.566-1.046 1.155-2.078 1.736-3.115.03-.053.068-.101.132-.197l2.11 6.496c.119-.018.132-.12.17-.189.82-1.466 1.638-2.934 2.456-4.402.141-.255.142-.257.29-.004.315.54.63 1.082.941 1.625.064.11.132.177.273.176.833-.006 1.667.004 2.5-.003.453-.004.722-.298.702-.739-.018-.387-.284-.648-.694-.655-.553-.009-1.106-.009-1.66.003-.18.003-.276-.064-.365-.222-.57-1.016-1.15-2.026-1.728-3.038-.133-.233-.14-.234-.268-.004-.7 1.27-1.4 2.54-2.102 3.81-.037.067-.055.151-.169.202L7.217 4.882 6.129 6.81c-.68 1.208-1.363 2.416-2.039 3.627-.071.128-.156.174-.297.173-.92-.005-1.838-.005-2.757-.001-.125 0-.2-.04-.257-.157-1.096-2.247-1.051-4.469.233-6.607C2.1 2.034 3.732 1.02 5.792.795c1.624-.178 3.123.234 4.448 1.233.192.145.308.162.514.007 1.368-1.03 2.914-1.437 4.588-1.204 2.277.316 3.987 1.535 4.975 3.66 1.096 2.355.86 4.647-.613 6.782-.533.771-1.245 1.381-1.892 2.047-2.363 2.43-4.734 4.85-7.101 7.274-.21.216-.208.215-.425-.008L2.14 12.25c-.059-.06-.114-.122-.17-.183l.031-.054z" mask="url(#hxa9sth40b)"/>
                    </g>
                </g>
            </g>
        </g>
    </g>
</svg>
