<svg xmlns="http://www.w3.org/2000/svg" xmlns:xlink="http://www.w3.org/1999/xlink" width="45" height="45" viewBox="0 0 45 45">
    <defs>
        <path id="sclw6efeva" d="M0 0.018L44.809 0.018 44.809 43.8 0 43.8z"/>
        <path id="751l53pu5c" d="M0.01 0.077L13.877 0.077 13.877 18.903 0.01 18.903z"/>
        <path id="ejdxu2e4ge" d="M0.003 0.122L2.199 0.122 2.199 37.761 0.003 37.761z"/>
    </defs>
    <g fill="none" fill-rule="evenodd">
        <g>
            <g>
                <g>
                    <g transform="translate(-21.000000, -37.000000) translate(21.000000, 37.000000) translate(0.000000, 0.212955)">
                        <mask id="x4m4ew8kxb" fill="#fff">
                            <use xlink:href="#sclw6efeva"/>
                        </mask>
                        <path fill="#182652" d="M44.776 37.594c-.124 1.639-.818 3.015-1.956 4.176-3.63 3.703-10.055 2.1-11.518-2.867-.199-.675-.29-1.358-.29-2.059V24.342c0-.497 0-.5-.44-.246-2.582 1.494-5.166 2.986-7.742 4.492-.338.198-.582.195-.937-.012-3.719-2.167-7.454-4.306-11.182-6.456-3.463-1.997-6.92-4.002-10.389-5.99-.277-.158-.292-.358-.292-.616.003-4.92.001-9.84.008-14.76 0-.227-.126-.55.08-.662.19-.102.409.161.606.275 3.162 1.823 6.32 3.654 9.48 5.48 3.945 2.279 7.893 4.552 11.834 6.835.233.135.397.137.635 0 4.506-2.612 9.017-5.213 13.528-7.814 2.765-1.594 5.533-3.183 8.3-4.774.159-.077.324-.171.306.141-.004.083 0 .167 0 .25v20.28c0 .564-.005.534-.555.613-.385.055-.754.154-1.146.049-.16-.043-.261.055-.274.23-.012.167-.017.331.018.483.04.021.068.015.076-.016.069-.241.105-.522.417-.561.323-.041.354.255.452.459.107.225.272.32.528.328.443.013.483.065.483.488v14.51c0 .083.011.167-.03.246" mask="url(#x4m4ew8kxb)"/>
                    </g>
                    <g transform="translate(-21.000000, -37.000000) translate(21.000000, 37.000000) translate(0.000000, 25.138606)">
                        <mask id="pz0ptkuvbd" fill="#fff">
                            <use xlink:href="#751l53pu5c"/>
                        </mask>
                        <path fill="#1DA6E2" d="M.013 6.396C.013 4.432.01 2.468.015.504c0-.506.017-.519.461-.265 1.82 1.04 3.634 2.09 5.45 3.136 1.492.86 2.99 1.71 4.475 2.582 1.873 1.1 3.05 2.733 3.378 4.871.402 2.618-.443 4.842-2.495 6.537-2.422 2-5.958 2.037-8.442.185C1.034 16.203.065 14.354.026 12.08-.006 10.184.02 8.29.02 6.395H.013z" mask="url(#pz0ptkuvbd)"/>
                    </g>
                    <g transform="translate(-21.000000, -37.000000) translate(21.000000, 37.000000) translate(42.657993, 0.045669)">
                        <mask id="gxs3nxatff" fill="#fff">
                            <use xlink:href="#ejdxu2e4ge"/>
                        </mask>
                        <path fill="#182652" d="M2.118 37.76c-.006-.263-.017-.527-.017-.792L2.1 23.173c0-.54 0-.536-.537-.494-.39.031-.533-.238-.619-.55-.037-.14.018-.352-.216-.323-.2.025-.311.17-.292.39.006.069.002.139 0 .208-.005.125.009.268-.177.27-.153.002-.234-.091-.238-.235-.007-.278-.041-.564.006-.834.082-.465.483-.192.628-.137.27.102.459.11.676-.061.079-.062.187-.079.28-.04.473.196.493-.075.492-.437C2.098 14.158 2.1 7.385 2.1.613c0-.176.078-.418-.258-.352.073-.087.154-.179.278-.122.112.05.071.17.073.262.005.25 0 .502 0 .753L2.19 20.842c0 5.336.002 10.672 0 16.008 0 .305.035.614-.073.91" mask="url(#gxs3nxatff)"/>
                    </g>
                    <path fill="#182652" d="M35.008 21.556c.1.304.425.307.646.434.1.057.13-.146.19-.23.269-.379.643-.477.957-.24.097.073.225.16.148.304-.062.118-.197.076-.303.056-.14-.025-.295-.158-.394.052-.041.089-.03.196.03.28.079.11.183.092.3.058.138-.04.332-.126.379.084.037.167-.14.26-.282.318-.282.116-.564.1-.75-.159-.147-.202-.21-.174-.365-.008-.27.289-.673.304-.936.075-.084-.074-.184-.158-.113-.28.058-.1.168-.072.264-.043.113.035.273.128.313-.034.04-.16-.166-.143-.268-.198-.254-.138-.509-.299-.362-.636.144-.332.537-.426.854-.244.108.062.25.135.21.276-.05.173-.207.153-.349.11-.053-.015-.105-.041-.17.025M41.171 21.913v-.167c.002-.667.335-.877.962-.626.254.102.34.265.28.52-.025.105-.101.208-.034.319.14.231.148.483-.066.634-.27.19-.614.196-.924.1-.273-.085-.214-.354-.218-.572v-.208M38.494 22.106c-.083.18.186.58-.243.599-.914.042-1.046-.113-1.094-.675-.027-.322.275-.626.582-.63.752-.012.752-.012.755.706M39.906 22.731c-.318-.007-.587-.327-.577-.689.009-.358.292-.648.631-.646.307.002.623.286.622.557-.003.487-.264.787-.676.778M38.743 21.887v-.542c.002-.137.042-.268.198-.268.155.001.224.157.202.268-.079.4-.05.801-.066 1.202-.003.09-.038.167-.146.16-.117-.007-.173-.091-.177-.195-.008-.208-.003-.417-.003-.625h-.008z" transform="translate(-21.000000, -37.000000) translate(21.000000, 37.000000)"/>
                </g>
            </g>
        </g>
    </g>
</svg>
